<svg width="24" height="24" viewBox="0 0 24 24" fill="none" xmlns="http://www.w3.org/2000/svg">
<rect width="24" height="24" fill="#1E1E1E"/>
<g id="&#208;&#147;&#208;&#187;&#208;&#176;&#208;&#178;&#208;&#189;&#208;&#176;&#209;&#143;" clip-path="url(#clip0_0_1)">
<rect width="1440" height="1586" transform="translate(-1114 -28)" fill="#121829"/>
<g id="Background" clip-path="url(#clip1_0_1)">
<g id="Ellipse 5" filter="url(#filter0_f_0_1)">
<ellipse cx="16.7432" cy="275.743" rx="200.84" ry="133.281" transform="rotate(-135 16.7432 275.743)" fill="#251E62"/>
</g>
</g>
<g id="Navbar" filter="url(#filter1_b_0_1)">
<rect width="1440" height="80" transform="translate(-1114 -28)" fill="#121829" fill-opacity="0.8"/>
<g id="Frame 74">
<g id="Frame 3">
<g id="Group 2">
<circle id="Ellipse 9" cx="12" cy="12" r="12" fill="#7B6EF6"/>
<path id="2" d="M9.358 14.788C10.254 14.0413 10.968 13.4207 11.5 12.926C12.032 12.422 12.4753 11.8993 12.83 11.358C13.1847 10.8167 13.362 10.2847 13.362 9.762C13.362 9.286 13.25 8.91267 13.026 8.642C12.802 8.37133 12.4567 8.236 11.99 8.236C11.5233 8.236 11.164 8.39467 10.912 8.712C10.66 9.02 10.5293 9.44467 10.52 9.986H8.616C8.65333 8.866 8.98467 8.01667 9.61 7.438C10.2447 6.85933 11.0473 6.57 12.018 6.57C13.082 6.57 13.8987 6.85467 14.468 7.424C15.0373 7.984 15.322 8.726 15.322 9.65C15.322 10.378 15.126 11.0733 14.734 11.736C14.342 12.3987 13.894 12.9773 13.39 13.472C12.886 13.9573 12.228 14.5453 11.416 15.236H15.546V16.86H8.63V15.404L9.358 14.788Z" fill="white"/>
</g>
</g>
</g>
</g>
</g>
<defs>
<filter id="filter0_f_0_1" x="-503.717" y="-244.717" width="1040.92" height="1040.92" filterUnits="userSpaceOnUse" color-interpolation-filters="sRGB">
<feFlood flood-opacity="0" result="BackgroundImageFix"/>
<feBlend mode="normal" in="SourceGraphic" in2="BackgroundImageFix" result="shape"/>
<feGaussianBlur stdDeviation="175" result="effect1_foregroundBlur_0_1"/>
</filter>
<filter id="filter1_b_0_1" x="-1154" y="-68" width="1520" height="160" filterUnits="userSpaceOnUse" color-interpolation-filters="sRGB">
<feFlood flood-opacity="0" result="BackgroundImageFix"/>
<feGaussianBlur in="BackgroundImageFix" stdDeviation="20"/>
<feComposite in2="SourceAlpha" operator="in" result="effect1_backgroundBlur_0_1"/>
<feBlend mode="normal" in="SourceGraphic" in2="effect1_backgroundBlur_0_1" result="shape"/>
</filter>
<clipPath id="clip0_0_1">
<rect width="1440" height="1586" fill="white" transform="translate(-1114 -28)"/>
</clipPath>
<clipPath id="clip1_0_1">
<rect width="1440" height="3192" fill="white" transform="translate(-1114 -188)"/>
</clipPath>
</defs>
</svg>
