<svg width="48" height="48" viewBox="0 0 48 48" fill="none" xmlns="http://www.w3.org/2000/svg">
<rect width="48" height="48" fill="url(#paint0_angular_571_767)"/>
<path d="M25.0234 16.8281C25.0547 16.8906 25.0703 17.1094 25.0703 17.4844C25.0859 17.8594 25.0859 18.3125 25.0703 18.8438C25.0703 19.375 25.0547 19.9453 25.0234 20.5547C24.9922 21.1484 24.9531 21.7109 24.9062 22.2422C24.875 22.5391 24.8203 22.9844 24.7422 23.5781C24.6797 24.1719 24.6016 24.8281 24.5078 25.5469C24.4141 26.2656 24.3125 27.0078 24.2031 27.7734C24.1094 28.5234 24.0156 29.2188 23.9219 29.8594C23.8281 30.4844 23.7422 31.0078 23.6641 31.4297C23.6016 31.8516 23.5547 32.0781 23.5234 32.1094C23.4609 32.1562 23.3594 32.2734 23.2188 32.4609C23.0781 32.6328 22.9219 32.8125 22.75 33C22.5938 33.1719 22.4453 33.3125 22.3047 33.4219C22.1641 33.5312 22.0703 33.5469 22.0234 33.4688C21.9922 33.3125 21.9766 32.8281 21.9766 32.0156C21.9766 31.6719 21.9766 31.2422 21.9766 30.7266C21.9922 30.1953 22.0078 29.5547 22.0234 28.8047C22.0547 28.0547 22.0938 27.1797 22.1406 26.1797C22.1875 25.1797 22.2422 24.0234 22.3047 22.7109C21.9922 23.7734 21.7109 24.7109 21.4609 25.5234C21.2266 26.3359 21.0156 27.0469 20.8281 27.6562C20.6562 28.25 20.5078 28.7578 20.3828 29.1797C20.2578 29.5859 20.1484 29.9219 20.0547 30.1875C19.8516 30.8125 19.7188 31.1797 19.6562 31.2891C19.5938 31.3047 19.4922 31.2578 19.3516 31.1484C19.2266 31.0391 19.0781 30.8828 18.9062 30.6797C18.75 30.4609 18.5859 30.2031 18.4141 29.9062C18.2578 29.6094 18.125 29.2812 18.0156 28.9219C17.9062 28.5938 17.7656 28.1562 17.5938 27.6094C17.4375 27.1406 17.2344 26.5312 16.9844 25.7812C16.7344 25.0156 16.4297 24.0625 16.0703 22.9219C16.1641 24.2031 16.2422 25.3281 16.3047 26.2969C16.3672 27.2656 16.4141 28.1094 16.4453 28.8281C16.4922 29.5469 16.5234 30.1562 16.5391 30.6562C16.5703 31.1406 16.5859 31.5469 16.5859 31.875C16.6016 32.625 16.5781 33.0547 16.5156 33.1641C16.3594 33.1641 16.1875 33.0938 16 32.9531C15.8281 32.7969 15.6562 32.6172 15.4844 32.4141C15.3281 32.1953 15.1875 31.9844 15.0625 31.7812C14.9531 31.5781 14.8906 31.4297 14.875 31.3359C14.8594 31.2734 14.8125 30.9844 14.7344 30.4688C14.6562 29.9531 14.5625 29.2969 14.4531 28.5C14.3594 27.6875 14.25 26.7812 14.125 25.7812C14.0156 24.7656 13.9062 23.7344 13.7969 22.6875C13.7031 21.6406 13.625 20.625 13.5625 19.6406C13.5 18.6406 13.4688 17.75 13.4688 16.9688C13.4688 16.8438 13.625 16.6797 13.9375 16.4766C14.25 16.2578 14.6016 16.0547 14.9922 15.8672C15.3984 15.6641 15.7734 15.4922 16.1172 15.3516C16.4609 15.1953 16.6719 15.1172 16.75 15.1172C16.8125 15.1172 16.875 15.2969 16.9375 15.6562C17.0156 16.0156 17.1016 16.4688 17.1953 17.0156C17.2891 17.5625 17.3906 18.1719 17.5 18.8438C17.6094 19.5156 17.7344 20.1562 17.875 20.7656C17.9844 21.3906 18.1172 22.0391 18.2734 22.7109C18.3984 23.2891 18.5391 23.9297 18.6953 24.6328C18.8672 25.3203 19.0547 25.9922 19.2578 26.6484C19.4766 25.6953 19.6719 24.8359 19.8438 24.0703C20.0312 23.2891 20.1953 22.625 20.3359 22.0781C20.5078 21.4375 20.6562 20.8672 20.7812 20.3672C21.0625 19.1484 21.3359 18.1875 21.6016 17.4844C21.8828 16.7812 22.0625 16.3672 22.1406 16.2422C22.1875 16.1797 22.3516 16.1641 22.6328 16.1953C22.9297 16.2266 23.25 16.2812 23.5938 16.3594C23.9375 16.4219 24.25 16.5 24.5312 16.5938C24.8281 16.6875 24.9922 16.7656 25.0234 16.8281ZM26.4531 33.7266C26.4219 33.6484 26.4062 33.3672 26.4062 32.8828C26.4062 32.3984 26.4062 31.7891 26.4062 31.0547C26.4219 30.3203 26.4375 29.5 26.4531 28.5938C26.4844 27.6719 26.5078 26.7422 26.5234 25.8047C26.5547 24.8516 26.5859 23.9297 26.6172 23.0391C26.6484 22.1328 26.6719 21.3281 26.6875 20.625C26.7188 19.9219 26.7422 19.3516 26.7578 18.9141C26.7734 18.4609 26.7891 18.2188 26.8047 18.1875C26.8203 18.125 26.8906 17.9688 27.0156 17.7188C27.1406 17.4688 27.2812 17.2109 27.4375 16.9453C27.6094 16.6641 27.7812 16.4219 27.9531 16.2188C28.125 16 28.2734 15.8984 28.3984 15.9141C28.4453 15.9297 28.4844 16.2422 28.5156 16.8516C28.5625 17.4453 28.6016 18.2109 28.6328 19.1484C28.6797 20.0859 28.7109 21.125 28.7266 22.2656C28.7578 23.3906 28.7812 24.4922 28.7969 25.5703C28.8281 26.6328 28.8516 27.6016 28.8672 28.4766C28.8828 29.3359 28.8984 29.9688 28.9141 30.375C29.4141 30.4219 29.9141 30.4609 30.4141 30.4922C30.9297 30.5234 31.3906 30.5625 31.7969 30.6094C32.2031 30.6406 32.5312 30.6719 32.7812 30.7031C33.0469 30.7344 33.1875 30.7578 33.2031 30.7734C33.25 30.8359 33.3125 30.9844 33.3906 31.2188C33.4844 31.4375 33.5703 31.6797 33.6484 31.9453C33.7266 32.1953 33.7812 32.4297 33.8125 32.6484C33.8594 32.8672 33.8516 33 33.7891 33.0469C31.9922 33.375 30.6016 33.5938 29.6172 33.7031C28.6328 33.8125 27.9062 33.8672 27.4375 33.8672C26.8906 33.8672 26.5625 33.8203 26.4531 33.7266Z" fill="white"/>
<defs>
<radialGradient id="paint0_angular_571_767" cx="0" cy="0" r="1" gradientUnits="userSpaceOnUse" gradientTransform="translate(24 24) rotate(90) scale(24)">
<stop offset="0.37" stop-color="#22203C"/>
<stop offset="0.825" stop-color="#163040"/>
</radialGradient>
</defs>
</svg>
